<?xml version="1.0" encoding="UTF-8" standalone="no"?>
<svg width="35px" height="35px" viewBox="0 0 35 35" version="1.1" xmlns="http://www.w3.org/2000/svg" xmlns:xlink="http://www.w3.org/1999/xlink">
    <!-- Generator: Sketch 44.1 (41455) - http://www.bohemiancoding.com/sketch -->
    <title>reader_ico</title>
    <desc>Created with Sketch.</desc>
    <defs></defs>
    <g id="Orbcomm-IT-RT-app-for-delivery-to-Ye" stroke="none" stroke-width="1" fill="none" fill-rule="evenodd">
        <g id="RFID-IT---02a---PZ-level---BLUE-w-STEP-CHART---prest-time---7d-resolution-by-default-KPIs-at-7d-as-well" transform="translate(-16.000000, -641.000000)">
            <g id="A1-list-view---make-selections-here">
                <g id="ZONE-type-cell---Zone_Two-(standrd-cell-size,-not-dense-list" transform="translate(16.000000, 641.000000)">
                    <g id="reader_ico">
                        <g>
                            <path d="M17.5,35 C27.1649831,35 35,26.5024226 35,17.0731707 C35,7.64391891 27.1649831,0 17.5,0 C7.83501688,0 0,7.64391891 0,17.0731707 C0,26.5024226 7.83501688,35 17.5,35 Z" id="Oval-3" fill="#7FA8D6"></path>
                            <g id="wifi-connection-signal-symbol" transform="translate(7.000000, 9.000000)" fill="#FFFFFF">
                                <g transform="translate(10.500000, 8.000000) rotate(-90.000000) translate(-10.500000, -8.000000) translate(2.500000, -2.500000)" id="Capa_1">
                                    <g fill-rule="nonzero">
                                        <g id="Wi-Fi" transform="translate(0.000000, 0.500000)">
                                            <path d="M8,8 C6.89598654,8 6,8.89598654 6,10 C6,11.1040135 6.89602233,12 8,12 C9.10397767,12 10,11.1040135 10,10 C10,8.89598654 9.10397767,8 8,8 Z M7.99965052,0 C5.0040031,0 2.17533094,1.24853442 0.237750037,3.42571325 C-0.122584123,3.83062387 -0.0671676401,4.4347844 0.362155869,4.77517535 C0.552103396,4.92588123 0.783313884,5 1.01387113,5 C1.30321994,5 1.59057273,4.88374804 1.79068176,4.65830631 C3.34089165,2.91545249 5.60436648,1.91594616 7.99968681,1.91594616 C10.3950071,1.91594616 12.6584457,2.91545249 14.2093451,4.65830631 C14.4101437,4.8843994 14.6974602,5 14.9861194,5 C15.2166767,5 15.4478872,4.9265326 15.637871,4.77517535 C16.0671582,4.4347844 16.1225747,3.83000679 15.7622768,3.42571325 C13.8239701,1.24856871 10.9952979,0 7.99965052,0 Z M8.00034948,20 C10.9959969,20 13.8246691,18.7514656 15.76225,16.5742868 C16.1225841,16.1693761 16.0671676,15.5652156 15.6378441,15.2248246 C15.4478966,15.0741188 15.2166861,15 14.9861289,15 C14.6967801,15 14.4094273,15.116252 14.2093182,15.3416937 C12.6591084,17.0845475 10.3956335,18.0840538 8.00031319,18.0840538 C5.60499285,18.0840538 3.34155431,17.0845475 1.79065489,15.3416937 C1.58985633,15.1156006 1.30253983,15 1.01388056,15 C0.783323308,15 0.552112819,15.0734674 0.362129001,15.2248246 C-0.0671582165,15.5652156 -0.1225747,16.1699932 0.23772317,16.5742868 C2.1760299,18.7514313 5.00470205,20 8.00034948,20 Z M8.00000764,4 C6.16316572,4 4.42918813,4.82563192 3.24285655,6.26500926 C2.87476904,6.71126308 2.9314093,7.37711112 3.36992644,7.75225753 C3.56394154,7.91835115 3.80010323,8 4.03559768,8 C4.33114267,8 4.6246489,7.87191597 4.82904311,7.62345562 C5.62111702,6.66267427 6.77705265,6.11153512 8.00000764,6.11153512 C9.22296263,6.11153512 10.3789353,6.66267427 11.1709722,7.62345562 C11.3760707,7.87263385 11.6695398,8 11.9644176,8 C12.1999121,8 12.4360737,7.91906903 12.6300888,7.75225753 C13.068606,7.37707334 13.1252092,6.7112253 12.7571587,6.26500926 C11.5707901,4.82563192 9.83681249,4 8.00000764,4 Z M7.99999236,16 C9.83683428,16 11.5708119,15.1743681 12.7571434,13.7349907 C13.125231,13.2887369 13.0685907,12.6228889 12.6300736,12.2477425 C12.4360585,12.0816488 12.1998968,12 11.9644023,12 C11.6688573,12 11.3753511,12.128084 11.1709569,12.3765444 C10.378883,13.3373257 9.22294735,13.8884649 7.99999236,13.8884649 C6.77703737,13.8884649 5.62106467,13.3373257 4.82902783,12.3765444 C4.62392932,12.1273662 4.33046016,12 4.0355824,12 C3.80008795,12 3.56392627,12.080931 3.36991116,12.2477425 C2.93139402,12.6229267 2.87479083,13.2887747 3.24284127,13.7349907 C4.42920992,15.1743681 6.16318751,16 7.99999236,16 Z" id="Shape"></path>
                                        </g>
                                    </g>
                                </g>
                            </g>
                        </g>
                    </g>
                </g>
            </g>
        </g>
    </g>
</svg>